<svg width="42" height="42" viewBox="0 0 42 42" fill="none" xmlns="http://www.w3.org/2000/svg">
<circle cx="21" cy="21" r="21" fill="#FF0000"/>
<path d="M12 15H14H30" stroke="white" stroke-width="2" stroke-linecap="round" stroke-linejoin="round"/>
<path d="M28 15V29C28 29.5304 27.7893 30.0391 27.4142 30.4142C27.0391 30.7893 26.5304 31 26 31H16C15.4696 31 14.9609 30.7893 14.5858 30.4142C14.2107 30.0391 14 29.5304 14 29V15M17 15V13C17 12.4696 17.2107 11.9609 17.5858 11.5858C17.9609 11.2107 18.4696 11 19 11H23C23.5304 11 24.0391 11.2107 24.4142 11.5858C24.7893 11.9609 25 12.4696 25 13V15" stroke="white" stroke-width="2" stroke-linecap="round" stroke-linejoin="round"/>
<path d="M19 20V26" stroke="white" stroke-width="2" stroke-linecap="round" stroke-linejoin="round"/>
<path d="M23 20V26" stroke="white" stroke-width="2" stroke-linecap="round" stroke-linejoin="round"/>
</svg>
